<svg xmlns="http://www.w3.org/2000/svg" width="16" height="16" viewBox="0 0 16 16" fill="none">
  <path d="M10.0014 15.1665C9.82143 15.1665 9.65476 15.0665 9.5681 14.9132C9.48143 14.7532 9.48143 14.5665 9.57476 14.4065L10.2748 13.2398C10.4148 12.9998 10.7281 12.9265 10.9614 13.0665C11.2014 13.2065 11.2748 13.5132 11.1348 13.7532L10.9548 14.0532C12.7948 13.6198 14.1748 11.9665 14.1748 9.99316C14.1748 9.71983 14.4014 9.49316 14.6748 9.49316C14.9481 9.49316 15.1748 9.71983 15.1748 9.99316C15.1681 12.8465 12.8481 15.1665 10.0014 15.1665Z" fill="white" style="fill:white;fill-opacity:1;"/>
  <path d="M1.33203 6.49967C1.0587 6.49967 0.832031 6.27301 0.832031 5.99967C0.832031 3.15301 3.15203 0.833008 5.9987 0.833008C6.1787 0.833008 6.34536 0.933008 6.43203 1.08634C6.5187 1.24634 6.5187 1.43301 6.42536 1.59301L5.72536 2.75967C5.58536 2.99301 5.2787 3.07301 5.0387 2.92634C4.80536 2.78634 4.72536 2.47967 4.87203 2.23967L5.05203 1.93967C3.20536 2.37301 1.83203 4.02634 1.83203 5.99967C1.83203 6.27301 1.60536 6.49967 1.33203 6.49967Z" fill="white" style="fill:white;fill-opacity:1;"/>
  <path d="M9.86537 8.42046V10.3805C9.86537 12.0138 9.21203 12.6671 7.5787 12.6671H5.6187C3.98536 12.6671 3.33203 12.0138 3.33203 10.3805V8.42046C3.33203 6.78712 3.98536 6.13379 5.6187 6.13379H7.5787C9.21203 6.13379 9.86537 6.78712 9.86537 8.42046Z" fill="white" style="fill:white;fill-opacity:1;"/>
  <path d="M10.3806 3.33301H8.42063C6.81396 3.33301 6.16062 3.97301 6.14062 5.54634H7.58062C9.54063 5.54634 10.4473 6.45967 10.4473 8.41301V9.85301C12.0273 9.83301 12.6606 9.17968 12.6606 7.57301V5.61967C12.6673 3.98634 12.014 3.33301 10.3806 3.33301Z" fill="white" style="fill:white;fill-opacity:1;"/>
</svg>