<svg xmlns="http://www.w3.org/2000/svg" width="16" height="16" viewBox="0 0 16 16" fill="none">
  <path d="M7.9987 1.33301C4.3187 1.33301 1.33203 4.31967 1.33203 7.99967C1.33203 11.6797 4.3187 14.6663 7.9987 14.6663C11.6787 14.6663 14.6654 11.6797 14.6654 7.99967C14.6654 4.31967 11.6787 1.33301 7.9987 1.33301ZM10.352 8.81967L6.8987 11.213C6.39203 11.5663 6.0987 11.3597 6.24536 10.7663L6.8787 8.20634L5.7787 7.93301C5.2787 7.81301 5.2187 7.46634 5.6387 7.17301L9.09203 4.77967C9.5987 4.42634 9.89203 4.63301 9.74537 5.22634L9.11203 7.78634L10.212 8.05967C10.712 8.18634 10.772 8.52634 10.352 8.81967Z" fill="white" style="fill:white;fill-opacity:1;"/>
</svg>